<svg width="179" height="166" viewBox="0 0 179 166" fill="none" xmlns="http://www.w3.org/2000/svg">
<g filter="url(#filter0_d_51_864)">
<path d="M102.23 113.054L89.28 120.746L72.66 130.608L59.7 122.916V20.7414L20.61 43.9609L4 53.8226V34.089L20.61 24.2274L59.7 1.0181L61.42 0L76.32 8.85393V113.054L89.28 120.746L102.23 113.054Z" fill="#00223E"/>
<path d="M174.55 34.089V53.8226L157.93 43.9609L118.84 20.7414V122.916L105.89 130.608L89.94 140.079L89.28 140.48L61.42 157.015L4 122.916V53.8226L20.61 43.9609V113.054L61.42 137.292L72.66 130.608L89.28 120.746L102.23 113.054V8.85394L117.13 0L174.55 34.089Z" fill="#00C7FE"/>
<path d="M174.55 53.8228V122.916L117.13 157.015L89.2803 140.48L89.9403 140.079L105.89 130.608L117.13 137.292L157.93 113.054V43.9612L174.55 53.8228Z" fill="#00223E"/>
</g>
<defs>
<filter id="filter0_d_51_864" x="0" y="0" width="178.55" height="165.015" filterUnits="userSpaceOnUse" color-interpolation-filters="sRGB">
<feFlood flood-opacity="0" result="BackgroundImageFix"/>
<feColorMatrix in="SourceAlpha" type="matrix" values="0 0 0 0 0 0 0 0 0 0 0 0 0 0 0 0 0 0 127 0" result="hardAlpha"/>
<feOffset dy="4"/>
<feGaussianBlur stdDeviation="2"/>
<feComposite in2="hardAlpha" operator="out"/>
<feColorMatrix type="matrix" values="0 0 0 0 0 0 0 0 0 0 0 0 0 0 0 0 0 0 0.25 0"/>
<feBlend mode="normal" in2="BackgroundImageFix" result="effect1_dropShadow_51_864"/>
<feBlend mode="normal" in="SourceGraphic" in2="effect1_dropShadow_51_864" result="shape"/>
</filter>
</defs>
</svg>
